<svg width="540" height="270" viewBox="0 0 540 270" fill="none" xmlns="http://www.w3.org/2000/svg">
<rect width="540" height="270" rx="10" fill="white"/>
<circle cx="526.5" cy="13.5" r="1.5" fill="#2F2F2F"/>
<circle cx="526.5" cy="18.5" r="1.5" fill="#2F2F2F"/>
<circle cx="526.5" cy="23.5" r="1.5" fill="#2F2F2F"/>
<path d="M12.4773 16.598V15.2727H19.4403V16.598H16.7429V24H15.1747V16.598H12.4773ZM20.7827 24V15.2727H24.0554C24.7259 15.2727 25.2884 15.3892 25.7429 15.6222C26.2003 15.8551 26.5455 16.1818 26.7784 16.6023C27.0142 17.0199 27.1321 17.5071 27.1321 18.0639C27.1321 18.6236 27.0128 19.1094 26.7741 19.5213C26.5384 19.9304 26.1903 20.2472 25.7301 20.4716C25.2699 20.6932 24.7045 20.804 24.0341 20.804H21.7031V19.4915H23.821C24.2131 19.4915 24.5341 19.4375 24.7841 19.3295C25.0341 19.2187 25.2188 19.0582 25.3381 18.848C25.4602 18.6349 25.5213 18.3736 25.5213 18.0639C25.5213 17.7543 25.4602 17.4901 25.3381 17.2713C25.2159 17.0497 25.0298 16.8821 24.7798 16.7685C24.5298 16.652 24.2074 16.5938 23.8125 16.5938H22.3636V24H20.7827ZM25.2912 20.0455L27.4517 24H25.6875L23.5653 20.0455H25.2912ZM34.0888 15.2727H35.6697V20.9744C35.6697 21.5994 35.522 22.1491 35.2266 22.6236C34.9339 23.098 34.522 23.4687 33.9908 23.7358C33.4595 24 32.8388 24.1321 32.1286 24.1321C31.4155 24.1321 30.7933 24 30.2621 23.7358C29.7308 23.4687 29.3189 23.098 29.0263 22.6236C28.7337 22.1491 28.5874 21.5994 28.5874 20.9744V15.2727H30.1683V20.8423C30.1683 21.206 30.2479 21.5298 30.407 21.8139C30.5689 22.098 30.7962 22.321 31.0888 22.483C31.3814 22.642 31.728 22.7216 32.1286 22.7216C32.5291 22.7216 32.8757 22.642 33.1683 22.483C33.4638 22.321 33.6911 22.098 33.8501 21.8139C34.0092 21.5298 34.0888 21.206 34.0888 20.8423V15.2727ZM42.131 17.6719C42.0913 17.2997 41.9237 17.0099 41.6282 16.8026C41.3356 16.5952 40.9549 16.4915 40.4862 16.4915C40.1566 16.4915 39.8739 16.5412 39.6381 16.6406C39.4023 16.7401 39.2219 16.875 39.0969 17.0455C38.9719 17.2159 38.908 17.4105 38.9052 17.6293C38.9052 17.8111 38.9464 17.9687 39.0288 18.1023C39.114 18.2358 39.229 18.3494 39.3739 18.4432C39.5188 18.5341 39.6793 18.6108 39.8555 18.6733C40.0316 18.7358 40.2092 18.7884 40.3881 18.831L41.2063 19.0355C41.5359 19.1122 41.8526 19.2159 42.1566 19.3466C42.4634 19.4773 42.7376 19.642 42.979 19.8409C43.2234 20.0398 43.4165 20.2798 43.5586 20.5611C43.7006 20.8423 43.7717 21.1719 43.7717 21.5497C43.7717 22.0611 43.641 22.5114 43.3796 22.9006C43.1183 23.2869 42.7404 23.5895 42.2461 23.8082C41.7546 24.0241 41.1594 24.1321 40.4606 24.1321C39.7816 24.1321 39.1921 24.027 38.6921 23.8168C38.195 23.6065 37.8058 23.2997 37.5245 22.8963C37.2461 22.4929 37.0955 22.0014 37.0728 21.4219H38.6282C38.6509 21.7259 38.7447 21.9787 38.9094 22.1804C39.0742 22.3821 39.2887 22.5327 39.5529 22.6321C39.82 22.7315 40.1183 22.7812 40.4478 22.7812C40.7915 22.7812 41.0927 22.7301 41.3512 22.6278C41.6126 22.5227 41.8171 22.3778 41.9648 22.1932C42.1126 22.0057 42.1879 21.7869 42.1907 21.5369C42.1879 21.3097 42.1211 21.1222 41.9904 20.9744C41.8597 20.8239 41.6765 20.6989 41.4407 20.5994C41.2077 20.4972 40.935 20.4062 40.6225 20.3267L39.6296 20.071C38.9109 19.8864 38.3427 19.6065 37.9251 19.2315C37.5103 18.8537 37.3029 18.3523 37.3029 17.7273C37.3029 17.2131 37.4421 16.7628 37.7205 16.3764C38.0018 15.9901 38.3839 15.6903 38.8668 15.4773C39.3498 15.2614 39.8967 15.1534 40.5075 15.1534C41.1268 15.1534 41.6694 15.2614 42.1353 15.4773C42.604 15.6903 42.9719 15.9872 43.239 16.3679C43.506 16.7457 43.6438 17.1804 43.6523 17.6719H42.131ZM44.7976 16.598V15.2727H51.7607V16.598H49.0632V24H47.495V16.598H44.7976ZM56.0795 24V15.2727H57.6605V22.6747H61.5043V24H56.0795ZM62.8764 24V15.2727H68.5526V16.598H64.4574V18.9673H68.2585V20.2926H64.4574V22.6747H68.5866V24H62.8764ZM71.3331 15.2727L73.6044 22.142H73.6939L75.9609 15.2727H77.6996L74.6229 24H72.6712L69.5987 15.2727H71.3331ZM78.8491 24V15.2727H84.5252V16.598H80.43V18.9673H84.2312V20.2926H80.43V22.6747H84.5593V24H78.8491ZM86.1381 24V15.2727H87.7191V22.6747H91.5629V24H86.1381Z" fill="#2F2F2F"/>
<path d="M65.6037 222.672C65.5639 222.3 65.3963 222.01 65.1009 221.803C64.8082 221.595 64.4276 221.491 63.9588 221.491C63.6293 221.491 63.3466 221.541 63.1108 221.641C62.875 221.74 62.6946 221.875 62.5696 222.045C62.4446 222.216 62.3807 222.411 62.3778 222.629C62.3778 222.811 62.419 222.969 62.5014 223.102C62.5866 223.236 62.7017 223.349 62.8466 223.443C62.9915 223.534 63.152 223.611 63.3281 223.673C63.5043 223.736 63.6818 223.788 63.8608 223.831L64.679 224.036C65.0085 224.112 65.3253 224.216 65.6293 224.347C65.9361 224.477 66.2102 224.642 66.4517 224.841C66.696 225.04 66.8892 225.28 67.0312 225.561C67.1733 225.842 67.2443 226.172 67.2443 226.55C67.2443 227.061 67.1136 227.511 66.8523 227.901C66.5909 228.287 66.2131 228.589 65.7188 228.808C65.2273 229.024 64.6321 229.132 63.9332 229.132C63.2543 229.132 62.6648 229.027 62.1648 228.817C61.6676 228.607 61.2784 228.3 60.9972 227.896C60.7188 227.493 60.5682 227.001 60.5455 226.422H62.1009C62.1236 226.726 62.2173 226.979 62.3821 227.18C62.5469 227.382 62.7614 227.533 63.0256 227.632C63.2926 227.732 63.5909 227.781 63.9205 227.781C64.2642 227.781 64.5653 227.73 64.8239 227.628C65.0852 227.523 65.2898 227.378 65.4375 227.193C65.5852 227.006 65.6605 226.787 65.6634 226.537C65.6605 226.31 65.5938 226.122 65.4631 225.974C65.3324 225.824 65.1491 225.699 64.9134 225.599C64.6804 225.497 64.4077 225.406 64.0952 225.327L63.1023 225.071C62.3835 224.886 61.8153 224.607 61.3977 224.232C60.983 223.854 60.7756 223.352 60.7756 222.727C60.7756 222.213 60.9148 221.763 61.1932 221.376C61.4744 220.99 61.8565 220.69 62.3395 220.477C62.8224 220.261 63.3693 220.153 63.9801 220.153C64.5994 220.153 65.142 220.261 65.608 220.477C66.0767 220.69 66.4446 220.987 66.7116 221.368C66.9787 221.746 67.1165 222.18 67.125 222.672H65.6037ZM72.7575 226.247V222.455H74.3001V229H72.8043V227.837H72.7362C72.5884 228.203 72.3455 228.503 72.0075 228.736C71.6722 228.969 71.2589 229.085 70.7674 229.085C70.3384 229.085 69.9592 228.99 69.6296 228.8C69.3029 228.607 69.0472 228.327 68.8626 227.96C68.6779 227.591 68.5856 227.145 68.5856 226.622V222.455H70.1282V226.384C70.1282 226.798 70.2418 227.128 70.4691 227.372C70.6964 227.616 70.9947 227.739 71.364 227.739C71.5913 227.739 71.8114 227.683 72.0245 227.572C72.2376 227.462 72.4123 227.297 72.5487 227.078C72.6879 226.857 72.7575 226.58 72.7575 226.247ZM75.8864 229V222.455H77.3608V223.567H77.4375C77.5739 223.192 77.7997 222.899 78.1151 222.689C78.4304 222.476 78.8068 222.369 79.2443 222.369C79.6875 222.369 80.0611 222.477 80.3651 222.693C80.6719 222.906 80.8878 223.197 81.0128 223.567H81.081C81.2259 223.203 81.4702 222.913 81.8139 222.697C82.1605 222.479 82.571 222.369 83.0455 222.369C83.6477 222.369 84.1392 222.56 84.5199 222.94C84.9006 223.321 85.0909 223.876 85.0909 224.607V229H83.544V224.845C83.544 224.439 83.4361 224.142 83.2202 223.955C83.0043 223.764 82.7401 223.669 82.4276 223.669C82.0554 223.669 81.7642 223.786 81.554 224.018C81.3466 224.249 81.2429 224.548 81.2429 224.918V229H79.7301V224.781C79.7301 224.443 79.6278 224.173 79.4233 223.972C79.2216 223.77 78.9574 223.669 78.6307 223.669C78.4091 223.669 78.2074 223.726 78.0256 223.839C77.8438 223.95 77.6989 224.108 77.5909 224.312C77.483 224.514 77.429 224.75 77.429 225.02V229H75.8864ZM97.4989 224.636C97.4989 225.577 97.3228 226.382 96.9705 227.053C96.6211 227.72 96.1438 228.232 95.5387 228.587C94.9364 228.942 94.2532 229.119 93.489 229.119C92.7248 229.119 92.0401 228.942 91.435 228.587C90.8327 228.229 90.3555 227.716 90.0032 227.048C89.6538 226.378 89.479 225.574 89.479 224.636C89.479 223.696 89.6538 222.892 90.0032 222.224C90.3555 221.554 90.8327 221.041 91.435 220.686C92.0401 220.331 92.7248 220.153 93.489 220.153C94.2532 220.153 94.9364 220.331 95.5387 220.686C96.1438 221.041 96.6211 221.554 96.9705 222.224C97.3228 222.892 97.4989 223.696 97.4989 224.636ZM95.9094 224.636C95.9094 223.974 95.8058 223.416 95.5984 222.962C95.3938 222.504 95.1097 222.159 94.7461 221.926C94.3825 221.69 93.9634 221.572 93.489 221.572C93.0146 221.572 92.5955 221.69 92.2319 221.926C91.8683 222.159 91.5827 222.504 91.3754 222.962C91.1708 223.416 91.0685 223.974 91.0685 224.636C91.0685 225.298 91.1708 225.858 91.3754 226.315C91.5827 226.77 91.8683 227.115 92.2319 227.351C92.5955 227.584 93.0146 227.7 93.489 227.7C93.9634 227.7 94.3825 227.584 94.7461 227.351C95.1097 227.115 95.3938 226.77 95.5984 226.315C95.8058 225.858 95.9094 225.298 95.9094 224.636ZM102.241 222.455V223.648H98.3714V222.455H102.241ZM99.3388 229V221.837C99.3388 221.396 99.4297 221.03 99.6115 220.737C99.7962 220.445 100.043 220.226 100.353 220.081C100.663 219.936 101.006 219.864 101.384 219.864C101.651 219.864 101.888 219.885 102.096 219.928C102.303 219.97 102.457 220.009 102.556 220.043L102.249 221.236C102.184 221.216 102.102 221.196 102.002 221.176C101.903 221.153 101.792 221.142 101.67 221.142C101.383 221.142 101.18 221.212 101.06 221.351C100.944 221.487 100.886 221.683 100.886 221.939V229H99.3388ZM108.075 220.273V229H106.494V220.273H108.075ZM112.147 229.115C111.633 229.115 111.173 228.983 110.767 228.719C110.36 228.455 110.039 228.071 109.804 227.568C109.568 227.065 109.45 226.455 109.45 225.736C109.45 225.009 109.569 224.395 109.808 223.895C110.049 223.392 110.375 223.013 110.784 222.757C111.193 222.499 111.649 222.369 112.152 222.369C112.535 222.369 112.85 222.435 113.098 222.565C113.345 222.693 113.541 222.848 113.686 223.03C113.831 223.209 113.943 223.378 114.022 223.537H114.086V220.273H115.633V229H114.116V227.969H114.022C113.943 228.128 113.828 228.297 113.677 228.476C113.527 228.652 113.328 228.803 113.081 228.928C112.833 229.053 112.522 229.115 112.147 229.115ZM112.578 227.849C112.904 227.849 113.183 227.761 113.413 227.585C113.643 227.406 113.818 227.158 113.937 226.839C114.056 226.521 114.116 226.151 114.116 225.727C114.116 225.304 114.056 224.936 113.937 224.624C113.821 224.311 113.647 224.068 113.417 223.895C113.19 223.722 112.91 223.635 112.578 223.635C112.234 223.635 111.947 223.724 111.717 223.903C111.487 224.082 111.314 224.33 111.197 224.645C111.081 224.96 111.022 225.321 111.022 225.727C111.022 226.136 111.081 226.501 111.197 226.822C111.316 227.141 111.491 227.392 111.721 227.577C111.954 227.759 112.24 227.849 112.578 227.849ZM120.175 229.128C119.518 229.128 118.952 228.991 118.474 228.719C118 228.443 117.635 228.054 117.379 227.551C117.124 227.045 116.996 226.45 116.996 225.766C116.996 225.092 117.124 224.501 117.379 223.993C117.638 223.482 117.999 223.084 118.462 222.8C118.925 222.513 119.469 222.369 120.094 222.369C120.497 222.369 120.878 222.435 121.236 222.565C121.597 222.693 121.915 222.892 122.19 223.162C122.469 223.432 122.688 223.776 122.847 224.193C123.006 224.608 123.085 225.102 123.085 225.676V226.149H117.72V225.109H121.607C121.604 224.814 121.54 224.551 121.415 224.321C121.29 224.088 121.115 223.905 120.891 223.771C120.669 223.638 120.411 223.571 120.115 223.571C119.8 223.571 119.523 223.648 119.284 223.801C119.045 223.952 118.859 224.151 118.726 224.398C118.595 224.642 118.528 224.911 118.526 225.203V226.111C118.526 226.491 118.595 226.818 118.734 227.091C118.874 227.361 119.068 227.568 119.318 227.713C119.568 227.855 119.861 227.926 120.196 227.926C120.42 227.926 120.624 227.895 120.805 227.832C120.987 227.767 121.145 227.672 121.278 227.547C121.412 227.422 121.513 227.267 121.581 227.082L123.021 227.244C122.93 227.625 122.757 227.957 122.501 228.241C122.249 228.523 121.925 228.741 121.53 228.898C121.135 229.051 120.683 229.128 120.175 229.128ZM125.933 225.165V229H124.39V222.455H125.865V223.567H125.941C126.092 223.2 126.332 222.909 126.662 222.693C126.994 222.477 127.404 222.369 127.893 222.369C128.345 222.369 128.738 222.466 129.074 222.659C129.412 222.852 129.673 223.132 129.858 223.499C130.045 223.865 130.137 224.31 130.135 224.832V229H128.592V225.071C128.592 224.634 128.478 224.291 128.251 224.044C128.027 223.797 127.716 223.673 127.318 223.673C127.048 223.673 126.808 223.733 126.598 223.852C126.39 223.969 126.227 224.138 126.108 224.359C125.991 224.581 125.933 224.849 125.933 225.165ZM134.971 222.455V223.648H131.208V222.455H134.971ZM132.137 220.886H133.68V227.031C133.68 227.239 133.711 227.398 133.774 227.509C133.839 227.616 133.924 227.69 134.029 227.73C134.135 227.77 134.251 227.79 134.379 227.79C134.475 227.79 134.564 227.783 134.643 227.768C134.725 227.754 134.788 227.741 134.831 227.73L135.091 228.936C135.008 228.964 134.89 228.996 134.737 229.03C134.586 229.064 134.402 229.084 134.183 229.089C133.797 229.101 133.449 229.043 133.139 228.915C132.829 228.784 132.583 228.582 132.402 228.31C132.223 228.037 132.135 227.696 132.137 227.287V220.886ZM136.261 229V222.455H137.804V229H136.261ZM137.037 221.526C136.793 221.526 136.582 221.445 136.406 221.283C136.23 221.118 136.142 220.92 136.142 220.69C136.142 220.457 136.23 220.26 136.406 220.098C136.582 219.933 136.793 219.851 137.037 219.851C137.284 219.851 137.494 219.933 137.668 220.098C137.844 220.26 137.932 220.457 137.932 220.69C137.932 220.92 137.844 221.118 137.668 221.283C137.494 221.445 137.284 221.526 137.037 221.526ZM142.659 222.455V223.648H138.896V222.455H142.659ZM139.825 220.886H141.368V227.031C141.368 227.239 141.399 227.398 141.461 227.509C141.527 227.616 141.612 227.69 141.717 227.73C141.822 227.77 141.939 227.79 142.066 227.79C142.163 227.79 142.251 227.783 142.331 227.768C142.413 227.754 142.475 227.741 142.518 227.73L142.778 228.936C142.696 228.964 142.578 228.996 142.424 229.03C142.274 229.064 142.089 229.084 141.87 229.089C141.484 229.101 141.136 229.043 140.826 228.915C140.517 228.784 140.271 228.582 140.089 228.31C139.91 228.037 139.822 227.696 139.825 227.287V220.886ZM143.949 229V222.455H145.491V229H143.949ZM144.724 221.526C144.48 221.526 144.27 221.445 144.094 221.283C143.918 221.118 143.83 220.92 143.83 220.69C143.83 220.457 143.918 220.26 144.094 220.098C144.27 219.933 144.48 219.851 144.724 219.851C144.972 219.851 145.182 219.933 145.355 220.098C145.531 220.26 145.619 220.457 145.619 220.69C145.619 220.92 145.531 221.118 145.355 221.283C145.182 221.445 144.972 221.526 144.724 221.526ZM149.975 229.128C149.319 229.128 148.752 228.991 148.275 228.719C147.801 228.443 147.436 228.054 147.18 227.551C146.924 227.045 146.797 226.45 146.797 225.766C146.797 225.092 146.924 224.501 147.18 223.993C147.439 223.482 147.799 223.084 148.262 222.8C148.725 222.513 149.27 222.369 149.895 222.369C150.298 222.369 150.679 222.435 151.037 222.565C151.397 222.693 151.716 222.892 151.991 223.162C152.27 223.432 152.488 223.776 152.647 224.193C152.806 224.608 152.886 225.102 152.886 225.676V226.149H147.521V225.109H151.407C151.404 224.814 151.341 224.551 151.216 224.321C151.091 224.088 150.916 223.905 150.691 223.771C150.47 223.638 150.211 223.571 149.916 223.571C149.6 223.571 149.324 223.648 149.085 223.801C148.846 223.952 148.66 224.151 148.527 224.398C148.396 224.642 148.329 224.911 148.326 225.203V226.111C148.326 226.491 148.396 226.818 148.535 227.091C148.674 227.361 148.869 227.568 149.119 227.713C149.369 227.855 149.662 227.926 149.997 227.926C150.221 227.926 150.424 227.895 150.606 227.832C150.788 227.767 150.946 227.672 151.079 227.547C151.213 227.422 151.314 227.267 151.382 227.082L152.822 227.244C152.731 227.625 152.558 227.957 152.302 228.241C152.049 228.523 151.725 228.741 151.331 228.898C150.936 229.051 150.484 229.128 149.975 229.128ZM159.364 224.185L157.958 224.338C157.918 224.196 157.849 224.062 157.749 223.938C157.653 223.812 157.522 223.712 157.357 223.635C157.192 223.558 156.991 223.52 156.752 223.52C156.431 223.52 156.161 223.589 155.942 223.729C155.727 223.868 155.62 224.048 155.623 224.27C155.62 224.46 155.69 224.615 155.832 224.734C155.977 224.854 156.215 224.952 156.548 225.028L157.664 225.267C158.283 225.401 158.744 225.612 159.045 225.902C159.349 226.192 159.502 226.571 159.505 227.04C159.502 227.452 159.381 227.815 159.143 228.131C158.907 228.443 158.579 228.687 158.158 228.864C157.738 229.04 157.255 229.128 156.71 229.128C155.908 229.128 155.263 228.96 154.775 228.625C154.286 228.287 153.995 227.817 153.901 227.214L155.406 227.07C155.474 227.365 155.619 227.588 155.84 227.739C156.062 227.889 156.35 227.964 156.705 227.964C157.072 227.964 157.366 227.889 157.587 227.739C157.812 227.588 157.924 227.402 157.924 227.18C157.924 226.993 157.852 226.838 157.707 226.716C157.565 226.594 157.343 226.5 157.042 226.435L155.925 226.2C155.298 226.07 154.833 225.849 154.532 225.54C154.231 225.227 154.082 224.832 154.085 224.355C154.082 223.952 154.191 223.602 154.413 223.307C154.637 223.009 154.948 222.778 155.346 222.616C155.746 222.452 156.208 222.369 156.731 222.369C157.498 222.369 158.102 222.533 158.542 222.859C158.985 223.186 159.259 223.628 159.364 224.185Z" fill="#112A5A"/>
<line x1="36" y1="202.5" x2="175.999" y2="202.5" stroke="#C4C4C4"/>
<rect x="36" y="168" width="15" height="34" fill="#F5B31F"/>
<rect x="78" y="139" width="15" height="63" fill="#3699FF"/>
<rect x="119" y="119" width="15" height="83" fill="#69C536"/>
<rect x="161" y="85" width="15" height="117" fill="#F64E60"/>
<path d="M240.5 82.3384C240.5 84.3654 238.902 85.9511 237 85.9511C235.098 85.9511 233.5 84.3654 233.5 82.3384C233.5 80.3114 235.098 78.7256 237 78.7256C238.902 78.7256 240.5 80.3114 240.5 82.3384Z" fill="#F5B31F" stroke="#F5B31F" stroke-width="3"/>
<path d="M240.5 117.105C240.5 119.132 238.902 120.718 237 120.718C235.098 120.718 233.5 119.132 233.5 117.105C233.5 115.078 235.098 113.492 237 113.492C238.902 113.492 240.5 115.078 240.5 117.105Z" fill="#3699FF" stroke="#3699FF" stroke-width="3"/>
<path d="M240.5 151.872C240.5 153.899 238.902 155.485 237 155.485C235.098 155.485 233.5 153.899 233.5 151.872C233.5 149.845 235.098 148.259 237 148.259C238.902 148.259 240.5 149.845 240.5 151.872Z" fill="#69C536" stroke="#69C536" stroke-width="3"/>
<path d="M240.5 186.639C240.5 188.666 238.902 190.252 237 190.252C235.098 190.252 233.5 188.666 233.5 186.639C233.5 184.612 235.098 183.026 237 183.026C238.902 183.026 240.5 184.612 240.5 186.639Z" fill="#F64E60" stroke="#F64E60" stroke-width="3"/>
<path d="M259.057 87.1805V78.4532H260.114V86.243H264.17V87.1805H259.057ZM268.415 87.3169C267.784 87.3169 267.24 87.1777 266.783 86.8993C266.328 86.618 265.977 86.226 265.73 85.7231C265.486 85.2174 265.364 84.6294 265.364 83.9589C265.364 83.2885 265.486 82.6976 265.73 82.1862C265.977 81.672 266.321 81.2714 266.761 80.9845C267.205 80.6947 267.722 80.5498 268.312 80.5498C268.653 80.5498 268.99 80.6066 269.322 80.7203C269.655 80.8339 269.957 81.0186 270.23 81.2743C270.503 81.5271 270.72 81.8623 270.882 82.2799C271.044 82.6976 271.125 83.2118 271.125 83.8226V84.2487H266.08V83.3794H270.102C270.102 83.0101 270.028 82.6805 269.881 82.3907C269.736 82.101 269.528 81.8723 269.259 81.7047C268.991 81.537 268.676 81.4532 268.312 81.4532C267.912 81.4532 267.565 81.5527 267.273 81.7515C266.983 81.9476 266.76 82.2032 266.604 82.5186C266.447 82.8339 266.369 83.172 266.369 83.5328V84.1123C266.369 84.6066 266.455 85.0257 266.625 85.3694C266.798 85.7103 267.038 85.9703 267.345 86.1493C267.652 86.3254 268.009 86.4135 268.415 86.4135C268.679 86.4135 268.918 86.3765 269.131 86.3027C269.347 86.226 269.533 86.1123 269.689 85.9618C269.845 85.8084 269.966 85.618 270.051 85.3907L271.023 85.6635C270.92 85.993 270.749 86.2828 270.507 86.5328C270.266 86.7799 269.967 86.9731 269.612 87.1123C269.257 87.2487 268.858 87.3169 268.415 87.3169ZM277.808 80.6351L275.387 87.1805H274.365L271.944 80.6351H273.035L274.842 85.851H274.91L276.717 80.6351H277.808ZM281.645 87.3169C281.015 87.3169 280.471 87.1777 280.013 86.8993C279.559 86.618 279.208 86.226 278.961 85.7231C278.716 85.2174 278.594 84.6294 278.594 83.9589C278.594 83.2885 278.716 82.6976 278.961 82.1862C279.208 81.672 279.551 81.2714 279.992 80.9845C280.435 80.6947 280.952 80.5498 281.543 80.5498C281.884 80.5498 282.221 80.6066 282.553 80.7203C282.885 80.8339 283.188 81.0186 283.461 81.2743C283.733 81.5271 283.951 81.8623 284.113 82.2799C284.275 82.6976 284.355 83.2118 284.355 83.8226V84.2487H279.31V83.3794H283.333C283.333 83.0101 283.259 82.6805 283.111 82.3907C282.966 82.101 282.759 81.8723 282.489 81.7047C282.222 81.537 281.907 81.4532 281.543 81.4532C281.142 81.4532 280.796 81.5527 280.503 81.7515C280.213 81.9476 279.99 82.2032 279.834 82.5186C279.678 82.8339 279.6 83.172 279.6 83.5328V84.1123C279.6 84.6066 279.685 85.0257 279.855 85.3694C280.029 85.7103 280.269 85.9703 280.576 86.1493C280.882 86.3254 281.239 86.4135 281.645 86.4135C281.909 86.4135 282.148 86.3765 282.361 86.3027C282.577 86.226 282.763 86.1123 282.919 85.9618C283.076 85.8084 283.196 85.618 283.282 85.3907L284.253 85.6635C284.151 85.993 283.979 86.2828 283.738 86.5328C283.496 86.7799 283.198 86.9731 282.843 87.1123C282.488 87.2487 282.088 87.3169 281.645 87.3169ZM286.891 78.4532V87.1805H285.885V78.4532H286.891ZM295.858 82.3481V83.2856H292.04V82.3481H295.858ZM304.054 78.4532V87.1805H302.997V79.5612H302.946L300.815 80.976V79.9021L302.997 78.4532H304.054Z" fill="#151515"/>
<path d="M259.057 120.925V112.198H260.114V119.987H264.17V120.925H259.057ZM268.415 121.061C267.784 121.061 267.24 120.922 266.783 120.644C266.328 120.362 265.977 119.97 265.73 119.467C265.486 118.962 265.364 118.374 265.364 117.703C265.364 117.033 265.486 116.442 265.73 115.931C265.977 115.416 266.321 115.016 266.761 114.729C267.205 114.439 267.722 114.294 268.312 114.294C268.653 114.294 268.99 114.351 269.322 114.465C269.655 114.578 269.957 114.763 270.23 115.019C270.503 115.271 270.72 115.607 270.882 116.024C271.044 116.442 271.125 116.956 271.125 117.567V117.993H266.08V117.124H270.102C270.102 116.754 270.028 116.425 269.881 116.135C269.736 115.845 269.528 115.617 269.259 115.449C268.991 115.281 268.676 115.198 268.312 115.198C267.912 115.198 267.565 115.297 267.273 115.496C266.983 115.692 266.76 115.948 266.604 116.263C266.447 116.578 266.369 116.916 266.369 117.277V117.857C266.369 118.351 266.455 118.77 266.625 119.114C266.798 119.455 267.038 119.715 267.345 119.894C267.652 120.07 268.009 120.158 268.415 120.158C268.679 120.158 268.918 120.121 269.131 120.047C269.347 119.97 269.533 119.857 269.689 119.706C269.845 119.553 269.966 119.362 270.051 119.135L271.023 119.408C270.92 119.737 270.749 120.027 270.507 120.277C270.266 120.524 269.967 120.717 269.612 120.857C269.257 120.993 268.858 121.061 268.415 121.061ZM277.808 114.379L275.387 120.925H274.365L271.944 114.379H273.035L274.842 119.595H274.91L276.717 114.379H277.808ZM281.645 121.061C281.015 121.061 280.471 120.922 280.013 120.644C279.559 120.362 279.208 119.97 278.961 119.467C278.716 118.962 278.594 118.374 278.594 117.703C278.594 117.033 278.716 116.442 278.961 115.931C279.208 115.416 279.551 115.016 279.992 114.729C280.435 114.439 280.952 114.294 281.543 114.294C281.884 114.294 282.221 114.351 282.553 114.465C282.885 114.578 283.188 114.763 283.461 115.019C283.733 115.271 283.951 115.607 284.113 116.024C284.275 116.442 284.355 116.956 284.355 117.567V117.993H279.31V117.124H283.333C283.333 116.754 283.259 116.425 283.111 116.135C282.966 115.845 282.759 115.617 282.489 115.449C282.222 115.281 281.907 115.198 281.543 115.198C281.142 115.198 280.796 115.297 280.503 115.496C280.213 115.692 279.99 115.948 279.834 116.263C279.678 116.578 279.6 116.916 279.6 117.277V117.857C279.6 118.351 279.685 118.77 279.855 119.114C280.029 119.455 280.269 119.715 280.576 119.894C280.882 120.07 281.239 120.158 281.645 120.158C281.909 120.158 282.148 120.121 282.361 120.047C282.577 119.97 282.763 119.857 282.919 119.706C283.076 119.553 283.196 119.362 283.282 119.135L284.253 119.408C284.151 119.737 283.979 120.027 283.738 120.277C283.496 120.524 283.198 120.717 282.843 120.857C282.488 120.993 282.088 121.061 281.645 121.061ZM286.891 112.198V120.925H285.885V112.198H286.891ZM295.858 116.092V117.03H292.04V116.092H295.858ZM300.985 120.925V120.158L303.866 117.004C304.204 116.635 304.483 116.314 304.701 116.041C304.92 115.766 305.082 115.507 305.187 115.266C305.295 115.021 305.349 114.766 305.349 114.499C305.349 114.192 305.275 113.926 305.127 113.702C304.983 113.477 304.784 113.304 304.531 113.182C304.278 113.06 303.994 112.999 303.679 112.999C303.343 112.999 303.051 113.068 302.801 113.208C302.554 113.344 302.362 113.536 302.225 113.783C302.092 114.03 302.025 114.32 302.025 114.652H301.02C301.02 114.141 301.137 113.692 301.373 113.306C301.609 112.919 301.93 112.618 302.336 112.402C302.745 112.186 303.204 112.078 303.713 112.078C304.224 112.078 304.677 112.186 305.072 112.402C305.467 112.618 305.777 112.909 306.001 113.276C306.225 113.642 306.338 114.05 306.338 114.499C306.338 114.82 306.279 115.134 306.163 115.44C306.049 115.744 305.85 116.084 305.566 116.459C305.285 116.831 304.895 117.286 304.395 117.823L302.434 119.919V119.987H306.491V120.925H300.985Z" fill="black"/>
<path d="M259.057 154.669V145.942H260.114V153.732H264.17V154.669H259.057ZM268.415 154.806C267.784 154.806 267.24 154.666 266.783 154.388C266.328 154.107 265.977 153.715 265.73 153.212C265.486 152.706 265.364 152.118 265.364 151.448C265.364 150.777 265.486 150.186 265.73 149.675C265.977 149.161 266.321 148.76 266.761 148.473C267.205 148.183 267.722 148.039 268.312 148.039C268.653 148.039 268.99 148.095 269.322 148.209C269.655 148.323 269.957 148.507 270.23 148.763C270.503 149.016 270.72 149.351 270.882 149.769C271.044 150.186 271.125 150.7 271.125 151.311V151.737H266.08V150.868H270.102C270.102 150.499 270.028 150.169 269.881 149.879C269.736 149.59 269.528 149.361 269.259 149.193C268.991 149.026 268.676 148.942 268.312 148.942C267.912 148.942 267.565 149.041 267.273 149.24C266.983 149.436 266.76 149.692 266.604 150.007C266.447 150.323 266.369 150.661 266.369 151.021V151.601C266.369 152.095 266.455 152.514 266.625 152.858C266.798 153.199 267.038 153.459 267.345 153.638C267.652 153.814 268.009 153.902 268.415 153.902C268.679 153.902 268.918 153.865 269.131 153.791C269.347 153.715 269.533 153.601 269.689 153.45C269.845 153.297 269.966 153.107 270.051 152.879L271.023 153.152C270.92 153.482 270.749 153.771 270.507 154.021C270.266 154.269 269.967 154.462 269.612 154.601C269.257 154.737 268.858 154.806 268.415 154.806ZM277.808 148.124L275.387 154.669H274.365L271.944 148.124H273.035L274.842 153.34H274.91L276.717 148.124H277.808ZM281.645 154.806C281.015 154.806 280.471 154.666 280.013 154.388C279.559 154.107 279.208 153.715 278.961 153.212C278.716 152.706 278.594 152.118 278.594 151.448C278.594 150.777 278.716 150.186 278.961 149.675C279.208 149.161 279.551 148.76 279.992 148.473C280.435 148.183 280.952 148.039 281.543 148.039C281.884 148.039 282.221 148.095 282.553 148.209C282.885 148.323 283.188 148.507 283.461 148.763C283.733 149.016 283.951 149.351 284.113 149.769C284.275 150.186 284.355 150.7 284.355 151.311V151.737H279.31V150.868H283.333C283.333 150.499 283.259 150.169 283.111 149.879C282.966 149.59 282.759 149.361 282.489 149.193C282.222 149.026 281.907 148.942 281.543 148.942C281.142 148.942 280.796 149.041 280.503 149.24C280.213 149.436 279.99 149.692 279.834 150.007C279.678 150.323 279.6 150.661 279.6 151.021V151.601C279.6 152.095 279.685 152.514 279.855 152.858C280.029 153.199 280.269 153.459 280.576 153.638C280.882 153.814 281.239 153.902 281.645 153.902C281.909 153.902 282.148 153.865 282.361 153.791C282.577 153.715 282.763 153.601 282.919 153.45C283.076 153.297 283.196 153.107 283.282 152.879L284.253 153.152C284.151 153.482 283.979 153.771 283.738 154.021C283.496 154.269 283.198 154.462 282.843 154.601C282.488 154.737 282.088 154.806 281.645 154.806ZM286.891 145.942V154.669H285.885V145.942H286.891ZM295.858 149.837V150.774H292.04V149.837H295.858ZM303.934 154.789C303.372 154.789 302.87 154.692 302.43 154.499C301.993 154.306 301.645 154.037 301.386 153.693C301.13 153.347 300.991 152.945 300.968 152.487H302.042C302.065 152.769 302.162 153.012 302.332 153.216C302.502 153.418 302.725 153.574 303.001 153.685C303.277 153.796 303.582 153.851 303.917 153.851C304.292 153.851 304.625 153.786 304.914 153.655C305.204 153.524 305.431 153.342 305.596 153.11C305.761 152.877 305.843 152.607 305.843 152.3C305.843 151.979 305.764 151.696 305.605 151.452C305.446 151.205 305.213 151.012 304.906 150.872C304.599 150.733 304.224 150.663 303.781 150.663H303.082V149.726H303.781C304.127 149.726 304.431 149.663 304.693 149.538C304.957 149.413 305.163 149.237 305.311 149.01C305.461 148.783 305.537 148.516 305.537 148.209C305.537 147.913 305.471 147.656 305.341 147.438C305.21 147.219 305.025 147.048 304.787 146.926C304.551 146.804 304.272 146.743 303.951 146.743C303.65 146.743 303.366 146.798 303.099 146.909C302.835 147.017 302.619 147.175 302.451 147.382C302.284 147.587 302.193 147.834 302.179 148.124H301.156C301.173 147.666 301.311 147.266 301.569 146.922C301.828 146.575 302.166 146.306 302.583 146.112C303.004 145.919 303.466 145.823 303.968 145.823C304.508 145.823 304.971 145.932 305.358 146.151C305.744 146.367 306.041 146.652 306.248 147.007C306.456 147.362 306.559 147.746 306.559 148.158C306.559 148.649 306.43 149.068 306.172 149.415C305.916 149.762 305.568 150.002 305.127 150.135V150.203C305.679 150.294 306.109 150.529 306.419 150.906C306.728 151.281 306.883 151.746 306.883 152.3C306.883 152.774 306.754 153.2 306.495 153.578C306.24 153.953 305.89 154.249 305.447 154.465C305.004 154.681 304.5 154.789 303.934 154.789Z" fill="black"/>
<path d="M259.057 188.414V179.686H260.114V187.476H264.17V188.414H259.057ZM268.415 188.55C267.784 188.55 267.24 188.411 266.783 188.132C266.328 187.851 265.977 187.459 265.73 186.956C265.486 186.45 265.364 185.862 265.364 185.192C265.364 184.521 265.486 183.931 265.73 183.419C265.977 182.905 266.321 182.504 266.761 182.217C267.205 181.928 267.722 181.783 268.312 181.783C268.653 181.783 268.99 181.84 269.322 181.953C269.655 182.067 269.957 182.252 270.23 182.507C270.503 182.76 270.72 183.095 270.882 183.513C271.044 183.931 271.125 184.445 271.125 185.056V185.482H266.08V184.612H270.102C270.102 184.243 270.028 183.914 269.881 183.624C269.736 183.334 269.528 183.105 269.259 182.938C268.991 182.77 268.676 182.686 268.312 182.686C267.912 182.686 267.565 182.786 267.273 182.985C266.983 183.181 266.76 183.436 266.604 183.752C266.447 184.067 266.369 184.405 266.369 184.766V185.345C266.369 185.84 266.455 186.259 266.625 186.602C266.798 186.943 267.038 187.203 267.345 187.382C267.652 187.558 268.009 187.646 268.415 187.646C268.679 187.646 268.918 187.61 269.131 187.536C269.347 187.459 269.533 187.345 269.689 187.195C269.845 187.041 269.966 186.851 270.051 186.624L271.023 186.896C270.92 187.226 270.749 187.516 270.507 187.766C270.266 188.013 269.967 188.206 269.612 188.345C269.257 188.482 268.858 188.55 268.415 188.55ZM277.808 181.868L275.387 188.414H274.365L271.944 181.868H273.035L274.842 187.084H274.91L276.717 181.868H277.808ZM281.645 188.55C281.015 188.55 280.471 188.411 280.013 188.132C279.559 187.851 279.208 187.459 278.961 186.956C278.716 186.45 278.594 185.862 278.594 185.192C278.594 184.521 278.716 183.931 278.961 183.419C279.208 182.905 279.551 182.504 279.992 182.217C280.435 181.928 280.952 181.783 281.543 181.783C281.884 181.783 282.221 181.84 282.553 181.953C282.885 182.067 283.188 182.252 283.461 182.507C283.733 182.76 283.951 183.095 284.113 183.513C284.275 183.931 284.355 184.445 284.355 185.056V185.482H279.31V184.612H283.333C283.333 184.243 283.259 183.914 283.111 183.624C282.966 183.334 282.759 183.105 282.489 182.938C282.222 182.77 281.907 182.686 281.543 182.686C281.142 182.686 280.796 182.786 280.503 182.985C280.213 183.181 279.99 183.436 279.834 183.752C279.678 184.067 279.6 184.405 279.6 184.766V185.345C279.6 185.84 279.685 186.259 279.855 186.602C280.029 186.943 280.269 187.203 280.576 187.382C280.882 187.558 281.239 187.646 281.645 187.646C281.909 187.646 282.148 187.61 282.361 187.536C282.577 187.459 282.763 187.345 282.919 187.195C283.076 187.041 283.196 186.851 283.282 186.624L284.253 186.896C284.151 187.226 283.979 187.516 283.738 187.766C283.496 188.013 283.198 188.206 282.843 188.345C282.488 188.482 282.088 188.55 281.645 188.55ZM286.891 179.686V188.414H285.885V179.686H286.891ZM295.858 183.581V184.519H292.04V183.581H295.858ZM300.781 186.624V185.754L304.616 179.686H305.247V181.033H304.821L301.923 185.618V185.686H307.088V186.624H300.781ZM304.889 188.414V186.36V185.955V179.686H305.895V188.414H304.889Z" fill="black"/>
<path d="M409.604 222.672C409.564 222.3 409.396 222.01 409.101 221.803C408.808 221.595 408.428 221.491 407.959 221.491C407.629 221.491 407.347 221.541 407.111 221.641C406.875 221.74 406.695 221.875 406.57 222.045C406.445 222.216 406.381 222.411 406.378 222.629C406.378 222.811 406.419 222.969 406.501 223.102C406.587 223.236 406.702 223.349 406.847 223.443C406.991 223.534 407.152 223.611 407.328 223.673C407.504 223.736 407.682 223.788 407.861 223.831L408.679 224.036C409.009 224.112 409.325 224.216 409.629 224.347C409.936 224.477 410.21 224.642 410.452 224.841C410.696 225.04 410.889 225.28 411.031 225.561C411.173 225.842 411.244 226.172 411.244 226.55C411.244 227.061 411.114 227.511 410.852 227.901C410.591 228.287 410.213 228.589 409.719 228.808C409.227 229.024 408.632 229.132 407.933 229.132C407.254 229.132 406.665 229.027 406.165 228.817C405.668 228.607 405.278 228.3 404.997 227.896C404.719 227.493 404.568 227.001 404.545 226.422H406.101C406.124 226.726 406.217 226.979 406.382 227.18C406.547 227.382 406.761 227.533 407.026 227.632C407.293 227.732 407.591 227.781 407.92 227.781C408.264 227.781 408.565 227.73 408.824 227.628C409.085 227.523 409.29 227.378 409.438 227.193C409.585 227.006 409.661 226.787 409.663 226.537C409.661 226.31 409.594 226.122 409.463 225.974C409.332 225.824 409.149 225.699 408.913 225.599C408.68 225.497 408.408 225.406 408.095 225.327L407.102 225.071C406.384 224.886 405.815 224.607 405.398 224.232C404.983 223.854 404.776 223.352 404.776 222.727C404.776 222.213 404.915 221.763 405.193 221.376C405.474 220.99 405.857 220.69 406.339 220.477C406.822 220.261 407.369 220.153 407.98 220.153C408.599 220.153 409.142 220.261 409.608 220.477C410.077 220.69 410.445 220.987 410.712 221.368C410.979 221.746 411.116 222.18 411.125 222.672H409.604ZM416.757 226.247V222.455H418.3V229H416.804V227.837H416.736C416.588 228.203 416.346 228.503 416.007 228.736C415.672 228.969 415.259 229.085 414.767 229.085C414.338 229.085 413.959 228.99 413.63 228.8C413.303 228.607 413.047 228.327 412.863 227.96C412.678 227.591 412.586 227.145 412.586 226.622V222.455H414.128V226.384C414.128 226.798 414.242 227.128 414.469 227.372C414.696 227.616 414.995 227.739 415.364 227.739C415.591 227.739 415.811 227.683 416.025 227.572C416.238 227.462 416.412 227.297 416.549 227.078C416.688 226.857 416.757 226.58 416.757 226.247ZM419.886 229V222.455H421.361V223.567H421.438C421.574 223.192 421.8 222.899 422.115 222.689C422.43 222.476 422.807 222.369 423.244 222.369C423.688 222.369 424.061 222.477 424.365 222.693C424.672 222.906 424.888 223.197 425.013 223.567H425.081C425.226 223.203 425.47 222.913 425.814 222.697C426.161 222.479 426.571 222.369 427.045 222.369C427.648 222.369 428.139 222.56 428.52 222.94C428.901 223.321 429.091 223.876 429.091 224.607V229H427.544V224.845C427.544 224.439 427.436 224.142 427.22 223.955C427.004 223.764 426.74 223.669 426.428 223.669C426.055 223.669 425.764 223.786 425.554 224.018C425.347 224.249 425.243 224.548 425.243 224.918V229H423.73V224.781C423.73 224.443 423.628 224.173 423.423 223.972C423.222 223.77 422.957 223.669 422.631 223.669C422.409 223.669 422.207 223.726 422.026 223.839C421.844 223.95 421.699 224.108 421.591 224.312C421.483 224.514 421.429 224.75 421.429 225.02V229H419.886ZM441.499 224.636C441.499 225.577 441.323 226.382 440.971 227.053C440.621 227.72 440.144 228.232 439.539 228.587C438.936 228.942 438.253 229.119 437.489 229.119C436.725 229.119 436.04 228.942 435.435 228.587C434.833 228.229 434.355 227.716 434.003 227.048C433.654 226.378 433.479 225.574 433.479 224.636C433.479 223.696 433.654 222.892 434.003 222.224C434.355 221.554 434.833 221.041 435.435 220.686C436.04 220.331 436.725 220.153 437.489 220.153C438.253 220.153 438.936 220.331 439.539 220.686C440.144 221.041 440.621 221.554 440.971 222.224C441.323 222.892 441.499 223.696 441.499 224.636ZM439.909 224.636C439.909 223.974 439.806 223.416 439.598 222.962C439.394 222.504 439.11 222.159 438.746 221.926C438.382 221.69 437.963 221.572 437.489 221.572C437.015 221.572 436.596 221.69 436.232 221.926C435.868 222.159 435.583 222.504 435.375 222.962C435.171 223.416 435.069 223.974 435.069 224.636C435.069 225.298 435.171 225.858 435.375 226.315C435.583 226.77 435.868 227.115 436.232 227.351C436.596 227.584 437.015 227.7 437.489 227.7C437.963 227.7 438.382 227.584 438.746 227.351C439.11 227.115 439.394 226.77 439.598 226.315C439.806 225.858 439.909 225.298 439.909 224.636ZM446.241 222.455V223.648H442.371V222.455H446.241ZM443.339 229V221.837C443.339 221.396 443.43 221.03 443.612 220.737C443.796 220.445 444.043 220.226 444.353 220.081C444.663 219.936 445.006 219.864 445.384 219.864C445.651 219.864 445.888 219.885 446.096 219.928C446.303 219.97 446.457 220.009 446.556 220.043L446.249 221.236C446.184 221.216 446.102 221.196 446.002 221.176C445.903 221.153 445.792 221.142 445.67 221.142C445.383 221.142 445.18 221.212 445.06 221.351C444.944 221.487 444.886 221.683 444.886 221.939V229H443.339ZM450.494 229V220.273H453.766C454.437 220.273 454.999 220.389 455.454 220.622C455.911 220.855 456.256 221.182 456.489 221.602C456.725 222.02 456.843 222.507 456.843 223.064C456.843 223.624 456.724 224.109 456.485 224.521C456.249 224.93 455.901 225.247 455.441 225.472C454.981 225.693 454.415 225.804 453.745 225.804H451.414V224.491H453.532C453.924 224.491 454.245 224.437 454.495 224.33C454.745 224.219 454.93 224.058 455.049 223.848C455.171 223.635 455.232 223.374 455.232 223.064C455.232 222.754 455.171 222.49 455.049 222.271C454.927 222.05 454.741 221.882 454.491 221.768C454.241 221.652 453.918 221.594 453.523 221.594H452.075V229H450.494ZM455.002 225.045L457.163 229H455.398L453.276 225.045H455.002ZM462.402 226.247V222.455H463.945V229H462.449V227.837H462.381C462.233 228.203 461.99 228.503 461.652 228.736C461.317 228.969 460.903 229.085 460.412 229.085C459.983 229.085 459.604 228.99 459.274 228.8C458.947 228.607 458.692 228.327 458.507 227.96C458.322 227.591 458.23 227.145 458.23 226.622V222.455H459.773V226.384C459.773 226.798 459.886 227.128 460.114 227.372C460.341 227.616 460.639 227.739 461.009 227.739C461.236 227.739 461.456 227.683 461.669 227.572C461.882 227.462 462.057 227.297 462.193 227.078C462.332 226.857 462.402 226.58 462.402 226.247ZM467.074 220.273V229H465.531V220.273H467.074ZM471.558 229.128C470.901 229.128 470.335 228.991 469.857 228.719C469.383 228.443 469.018 228.054 468.762 227.551C468.506 227.045 468.379 226.45 468.379 225.766C468.379 225.092 468.506 224.501 468.762 223.993C469.021 223.482 469.381 223.084 469.844 222.8C470.308 222.513 470.852 222.369 471.477 222.369C471.88 222.369 472.261 222.435 472.619 222.565C472.979 222.693 473.298 222.892 473.573 223.162C473.852 223.432 474.07 223.776 474.229 224.193C474.388 224.608 474.468 225.102 474.468 225.676V226.149H469.103V225.109H472.989C472.987 224.814 472.923 224.551 472.798 224.321C472.673 224.088 472.498 223.905 472.273 223.771C472.052 223.638 471.793 223.571 471.498 223.571C471.183 223.571 470.906 223.648 470.667 223.801C470.428 223.952 470.242 224.151 470.109 224.398C469.978 224.642 469.911 224.911 469.908 225.203V226.111C469.908 226.491 469.978 226.818 470.117 227.091C470.256 227.361 470.451 227.568 470.701 227.713C470.951 227.855 471.244 227.926 471.579 227.926C471.803 227.926 472.006 227.895 472.188 227.832C472.37 227.767 472.528 227.672 472.661 227.547C472.795 227.422 472.896 227.267 472.964 227.082L474.404 227.244C474.313 227.625 474.14 227.957 473.884 228.241C473.631 228.523 473.308 228.741 472.913 228.898C472.518 229.051 472.066 229.128 471.558 229.128ZM480.946 224.185L479.54 224.338C479.5 224.196 479.431 224.062 479.331 223.938C479.235 223.812 479.104 223.712 478.939 223.635C478.775 223.558 478.573 223.52 478.334 223.52C478.013 223.52 477.743 223.589 477.525 223.729C477.309 223.868 477.202 224.048 477.205 224.27C477.202 224.46 477.272 224.615 477.414 224.734C477.559 224.854 477.797 224.952 478.13 225.028L479.246 225.267C479.865 225.401 480.326 225.612 480.627 225.902C480.931 226.192 481.084 226.571 481.087 227.04C481.084 227.452 480.963 227.815 480.725 228.131C480.489 228.443 480.161 228.687 479.74 228.864C479.32 229.04 478.837 229.128 478.292 229.128C477.49 229.128 476.846 228.96 476.357 228.625C475.868 228.287 475.577 227.817 475.483 227.214L476.988 227.07C477.056 227.365 477.201 227.588 477.422 227.739C477.644 227.889 477.932 227.964 478.287 227.964C478.654 227.964 478.948 227.889 479.169 227.739C479.394 227.588 479.506 227.402 479.506 227.18C479.506 226.993 479.434 226.838 479.289 226.716C479.147 226.594 478.925 226.5 478.624 226.435L477.507 226.2C476.88 226.07 476.415 225.849 476.114 225.54C475.813 225.227 475.664 224.832 475.667 224.355C475.664 223.952 475.773 223.602 475.995 223.307C476.219 223.009 476.53 222.778 476.928 222.616C477.328 222.452 477.79 222.369 478.313 222.369C479.08 222.369 479.684 222.533 480.124 222.859C480.567 223.186 480.841 223.628 480.946 224.185Z" fill="#112A5A"/>
<line x1="364" y1="202.5" x2="503.999" y2="202.5" stroke="#C4C4C4"/>
<rect x="364" y="175" width="14.9999" height="27" fill="#F5B31F"/>
<rect x="405.667" y="118" width="14.9999" height="84" fill="#3699FF"/>
<rect x="447.333" y="131" width="14.9999" height="71" fill="#69C536"/>
<rect x="489" y="67" width="14.9999" height="135" fill="#F64E60"/>
<path d="M258.861 229V220.273H260.442V227.675H264.286V229H258.861ZM268.487 229.128C267.831 229.128 267.264 228.991 266.787 228.719C266.313 228.443 265.947 228.054 265.692 227.551C265.436 227.045 265.308 226.45 265.308 225.766C265.308 225.092 265.436 224.501 265.692 223.993C265.95 223.482 266.311 223.084 266.774 222.8C267.237 222.513 267.781 222.369 268.406 222.369C268.81 222.369 269.19 222.435 269.548 222.565C269.909 222.693 270.227 222.892 270.503 223.162C270.781 223.432 271 223.776 271.159 224.193C271.318 224.608 271.398 225.102 271.398 225.676V226.149H266.033V225.109H269.919C269.916 224.814 269.852 224.551 269.727 224.321C269.602 224.088 269.428 223.905 269.203 223.771C268.982 223.638 268.723 223.571 268.428 223.571C268.112 223.571 267.835 223.648 267.597 223.801C267.358 223.952 267.172 224.151 267.038 224.398C266.908 224.642 266.841 224.911 266.838 225.203V226.111C266.838 226.491 266.908 226.818 267.047 227.091C267.186 227.361 267.381 227.568 267.631 227.713C267.881 227.855 268.173 227.926 268.509 227.926C268.733 227.926 268.936 227.895 269.118 227.832C269.3 227.767 269.457 227.672 269.591 227.547C269.724 227.422 269.825 227.267 269.893 227.082L271.334 227.244C271.243 227.625 271.07 227.957 270.814 228.241C270.561 228.523 270.237 228.741 269.842 228.898C269.447 229.051 268.996 229.128 268.487 229.128ZM278.362 222.455L276.031 229H274.326L271.995 222.455H273.64L275.145 227.317H275.213L276.721 222.455H278.362ZM282.104 229.128C281.448 229.128 280.881 228.991 280.404 228.719C279.93 228.443 279.565 228.054 279.309 227.551C279.053 227.045 278.925 226.45 278.925 225.766C278.925 225.092 279.053 224.501 279.309 223.993C279.567 223.482 279.928 223.084 280.391 222.8C280.854 222.513 281.398 222.369 282.023 222.369C282.427 222.369 282.808 222.435 283.165 222.565C283.526 222.693 283.844 222.892 284.12 223.162C284.398 223.432 284.617 223.776 284.776 224.193C284.935 224.608 285.015 225.102 285.015 225.676V226.149H279.65V225.109H283.536C283.533 224.814 283.469 224.551 283.344 224.321C283.219 224.088 283.045 223.905 282.82 223.771C282.599 223.638 282.34 223.571 282.045 223.571C281.729 223.571 281.452 223.648 281.214 223.801C280.975 223.952 280.789 224.151 280.656 224.398C280.525 224.642 280.458 224.911 280.455 225.203V226.111C280.455 226.491 280.525 226.818 280.664 227.091C280.803 227.361 280.998 227.568 281.248 227.713C281.498 227.855 281.79 227.926 282.126 227.926C282.35 227.926 282.553 227.895 282.735 227.832C282.917 227.767 283.075 227.672 283.208 227.547C283.342 227.422 283.442 227.267 283.511 227.082L284.951 227.244C284.86 227.625 284.687 227.957 284.431 228.241C284.178 228.523 283.854 228.741 283.46 228.898C283.065 229.051 282.613 229.128 282.104 229.128ZM287.863 220.273V229H286.32V220.273H287.863ZM294.622 224.185L293.216 224.338C293.176 224.196 293.107 224.062 293.007 223.938C292.911 223.812 292.78 223.712 292.615 223.635C292.45 223.558 292.249 223.52 292.01 223.52C291.689 223.52 291.419 223.589 291.2 223.729C290.984 223.868 290.878 224.048 290.881 224.27C290.878 224.46 290.947 224.615 291.089 224.734C291.234 224.854 291.473 224.952 291.805 225.028L292.922 225.267C293.541 225.401 294.001 225.612 294.303 225.902C294.607 226.192 294.76 226.571 294.763 227.04C294.76 227.452 294.639 227.815 294.401 228.131C294.165 228.443 293.837 228.687 293.416 228.864C292.996 229.04 292.513 229.128 291.967 229.128C291.166 229.128 290.521 228.96 290.033 228.625C289.544 228.287 289.253 227.817 289.159 227.214L290.663 227.07C290.732 227.365 290.876 227.588 291.098 227.739C291.32 227.889 291.608 227.964 291.963 227.964C292.33 227.964 292.624 227.889 292.845 227.739C293.07 227.588 293.182 227.402 293.182 227.18C293.182 226.993 293.109 226.838 292.964 226.716C292.822 226.594 292.601 226.5 292.3 226.435L291.183 226.2C290.555 226.07 290.091 225.849 289.79 225.54C289.489 225.227 289.339 224.832 289.342 224.355C289.339 223.952 289.449 223.602 289.67 223.307C289.895 223.009 290.206 222.778 290.604 222.616C291.004 222.452 291.466 222.369 291.989 222.369C292.756 222.369 293.359 222.533 293.8 222.859C294.243 223.186 294.517 223.628 294.622 224.185Z" fill="#112A5A"/>
</svg>
